<svg width="12" height="12" viewBox="0 0 12 12" fill="none" xmlns="http://www.w3.org/2000/svg">
<path fill-rule="evenodd" clip-rule="evenodd" d="M6 0C9.31597 5.65122e-05 12 2.68402 12 6C11.9999 9.31593 9.31593 11.9999 6 12C2.68402 12 5.65106e-05 9.31597 0 6C0 2.68399 2.68399 0 6 0ZM4.58017 4.92336C4.26951 4.92342 4.01256 5.1803 4.01256 5.49098C4.01256 5.80165 4.26416 6.05854 4.58017 6.05859H4.98718V8.90348H4.58017C4.26957 8.90354 4.01265 9.1605 4.01256 9.4711C4.01256 9.78177 4.26416 10.0392 4.58017 10.0392H7.44651L7.45174 10.034C7.76777 10.034 8.01936 9.7819 8.01936 9.46587C8.01933 9.14985 7.76775 8.89829 7.45174 8.89825H7.07664V5.48574C7.07129 5.17511 6.81964 4.92347 6.50902 4.92336H4.58017ZM6.00523 1.77871C5.37311 1.77872 4.86424 2.28757 4.86424 2.9197C4.8643 3.55177 5.37314 4.06067 6.00523 4.06069C6.63733 4.06069 7.14616 3.55178 7.14622 2.9197C7.14622 2.28756 6.63736 1.77871 6.00523 1.77871Z" fill="white"/>
</svg>
