<svg width="13" height="13" viewBox="0 0 13 13" fill="none" xmlns="http://www.w3.org/2000/svg">
<path d="M12.0061 7.07107C12.3994 7.07107 12.7183 6.75222 12.7183 6.35891C12.7183 5.9656 12.3994 5.64675 12.0061 5.64675L7.07153 5.64675L7.07153 0.712156C7.07153 0.318842 6.75269 -7.24388e-07 6.35938 -7.24388e-07C5.96606 -7.24388e-07 5.64722 0.318843 5.64722 0.712157L5.64722 5.64675L0.712622 5.64675C0.319308 5.64675 0.000465167 5.9656 0.00046483 6.35891C0.000464577 6.75222 0.319308 7.07107 0.712622 7.07107L5.64722 7.07107L5.64722 12.0057C5.64722 12.399 5.96606 12.7178 6.35938 12.7178C6.75269 12.7178 7.07153 12.399 7.07153 12.0057L7.07153 7.07107L12.0061 7.07107Z" fill="#3396D3"/>
</svg>
